# xmcd
#
# Track frame offsets:
#	150
#	14502
#	25009
#	38106
#	47343
#	58285
#	68237
#	77914
#	90211
#	100093
#	111250
#	120087
#	130369
#	139006
#	150713
#	162750
#	173377
#	183714
#	194381
#	206233
#	218160
#	229347
#	239849
#	249181
#	260193
#	268675
#	279052
#	292959
#	303261
#	311818
#
# Disc length: 4333 seconds
#
# Revision: 1
# Processed by: cddbd v1.5.1PL0 Copyright (c) Steve Scherf et al.
# Submitted via: audiograbber 1.83.01
#
DISCID=a710eb1e
DTITLE=Les Paul and Mary Ford - Time To Dream
DYEAR=1990
DGENRE=Easy Listening
TTITLE0=Tennessee Waltz
TTITLE1=Mockin' Bird Hill
TTITLE2=Vaya Con Dios
TTITLE3=Johnny (Is The Boy For Me)
TTITLE4=Mandolino
TTITLE5=Mr. Sandman
TTITLE6=San Antonio Rose
TTITLE7=Cimarron
TTITLE8=Falling In Love With Love
TTITLE9=Turista
TTITLE10=Put A Ring On My Finger
TTITLE11=Fantasy
TTITLE12=Big Eyed Gal
TTITLE13=At The Sav-A-Penny Super Store
TTITLE14=Wonderful Rain
TTITLE15=Take A Warning
TTITLE16=Jura (I Swear I Love You)
TTITLE17=Goodnight Irene
TTITLE18=Lonely Guitar
TTITLE19=Memories
TTITLE20=Move Along Baby
TTITLE21=Russian Gypsy
TTITLE22=Ro-Ro-Robinson
TTITLE23=Sentimental Journey
TTITLE24=Down In Jungle Town
TTITLE25=On The Beach At Waikiki
TTITLE26=Tennessee Waltz (Patti Page)
TTITLE27=Tennessee Waltz (Eddy Arnold)
TTITLE28=Tennessee Waltz (Floyd Cramer)
TTITLE29=Tennessee Waltz (Spike Jones)
EXTD=
EXTT0=
EXTT1=
EXTT2=
EXTT3=
EXTT4=
EXTT5=
EXTT6=
EXTT7=
EXTT8=
EXTT9=
EXTT10=
EXTT11=
EXTT12=
EXTT13=
EXTT14=
EXTT15=
EXTT16=
EXTT17=
EXTT18=
EXTT19=
EXTT20=
EXTT21=
EXTT22=
EXTT23=
EXTT24=
EXTT25=
EXTT26=
EXTT27=
EXTT28=
EXTT29=
PLAYORDER=
